HIERARCHY
ROOT Hips
{
	OFFSET 0.000000 0.000000 0.000000
	CHANNELS 6 Xposition Yposition Zposition Zrotation Yrotation Xrotation 
	JOINT LHipJoint
	{
		OFFSET 0.000000 0.000000 0.000000
		CHANNELS 3 Zrotation Yrotation Xrotation
		JOINT LeftUpLeg
		{
			OFFSET 1.363060 -1.794630 0.839290
			CHANNELS 3 Zrotation Yrotation Xrotation
			JOINT LeftLeg
			{
				OFFSET 2.448110 -6.726130 0.000000
				CHANNELS 3 Zrotation Yrotation Xrotation
				JOINT LeftFoot
				{
					OFFSET 2.562200 -7.039590 0.000000
					CHANNELS 3 Zrotation Yrotation Xrotation
					JOINT LeftToeBase
					{
						OFFSET 0.157640 -0.433110 2.322550
						CHANNELS 3 Zrotation Yrotation Xrotation
						End Site
						{
							OFFSET 0.000000 0.000000 0.000000
						}
					}
				}
			}
		}
	}
	JOINT RHipJoint
	{
		OFFSET 0.000000 0.000000 0.000000
		CHANNELS 3 Zrotation Yrotation Xrotation
		JOINT RightUpLeg
		{
			OFFSET -1.305520 -1.794630 0.839290
			CHANNELS 3 Zrotation Yrotation Xrotation
			JOINT RightLeg
			{
				OFFSET -2.542530 -6.985550 0.000000
				CHANNELS 3 Zrotation Yrotation Xrotation
				JOINT RightFoot
				{
					OFFSET -2.568260 -7.056230 0.000000
					CHANNELS 3 Zrotation Yrotation Xrotation
					JOINT RightToeBase
					{
						OFFSET -0.164730 -0.452590 2.363150
						CHANNELS 3 Zrotation Yrotation Xrotation
						End Site
						{
							OFFSET 0.000000 0.000000 0.000000
						}
					}
				}
			}
		}
	}
	JOINT LowerBack
	{
		OFFSET 0.000000 0.000000 0.000000
		CHANNELS 3 Zrotation Yrotation Xrotation
		JOINT Spine
		{
			OFFSET 0.028270 2.035590 -0.193380
			CHANNELS 3 Zrotation Yrotation Xrotation
			JOINT Spine1
			{
				OFFSET 0.056720 2.048850 -0.042750
				CHANNELS 3 Zrotation Yrotation Xrotation
				JOINT Neck
				{
					OFFSET 0.000000 0.000000 0.000000
					CHANNELS 3 Zrotation Yrotation Xrotation
					JOINT Neck1
					{
						OFFSET -0.054170 1.746240 0.172020
						CHANNELS 3 Zrotation Yrotation Xrotation
						JOINT Head
						{
							OFFSET 0.104070 1.761360 -0.123970
							CHANNELS 3 Zrotation Yrotation Xrotation
							End Site
							{
								OFFSET 0.000000 0.000000 0.000000
							}
						}
					}
				}
				JOINT LeftShoulder
				{
					OFFSET 0.000000 0.000000 0.000000
					CHANNELS 3 Zrotation Yrotation Xrotation
					JOINT LeftArm
					{
						OFFSET 3.362410 1.200890 -0.311210
						CHANNELS 3 Zrotation Yrotation Xrotation
						JOINT LeftForeArm
						{
							OFFSET 4.983000 -0.000000 -0.000000
							CHANNELS 3 Zrotation Yrotation Xrotation
							JOINT LeftHand
							{
								OFFSET 3.483560 -0.000000 -0.000000
								CHANNELS 3 Zrotation Yrotation Xrotation
								JOINT LeftFingerBase
								{
									OFFSET 0.000000 0.000000 0.000000
									CHANNELS 3 Zrotation Yrotation Xrotation
									JOINT LeftHandIndex1
									{
										OFFSET 0.715260 -0.000000 -0.000000
										CHANNELS 3 Zrotation Yrotation Xrotation
										End Site
										{
											OFFSET 0.000000 0.000000 0.000000
										}
									}
								}
								JOINT LThumb
								{
									OFFSET 0.000000 0.000000 0.000000
									CHANNELS 3 Zrotation Yrotation Xrotation
									End Site
									{
										OFFSET 0.000000 0.000000 0.000000
									}
								}
							}
						}
					}
				}
				JOINT RightShoulder
				{
					OFFSET 0.000000 0.000000 0.000000
					CHANNELS 3 Zrotation Yrotation Xrotation
					JOINT RightArm
					{
						OFFSET -3.136600 1.374050 -0.404650
						CHANNELS 3 Zrotation Yrotation Xrotation
						JOINT RightForeArm
						{
							OFFSET -5.241900 -0.000000 -0.000000
							CHANNELS 3 Zrotation Yrotation Xrotation
							JOINT RightHand
							{
								OFFSET -3.444170 -0.000000 -0.000000
								CHANNELS 3 Zrotation Yrotation Xrotation
								JOINT RightFingerBase
								{
									OFFSET 0.000000 0.000000 0.000000
									CHANNELS 3 Zrotation Yrotation Xrotation
									JOINT RightHandIndex1
									{
										OFFSET -0.622530 -0.000000 -0.000000
										CHANNELS 3 Zrotation Yrotation Xrotation
										End Site
										{
											OFFSET 0.000000 0.000000 0.000000
										}
									}
								}
								JOINT RThumb
								{
									OFFSET 0.000000 0.000000 0.000000
									CHANNELS 3 Zrotation Yrotation Xrotation
									End Site
									{
										OFFSET 0.000000 0.000000 0.000000
									}
								}
							}
						}
					}
				}
			}
		}
	}
}
MOTION
Frames: 5
Frame Time: 0.008333
2.161784 16.615293 3.150655 12.439665 -41.099425 22.700196 -7.228461 -0.230485 8.022625 0.822646 -25.104142 -52.484731 -1.544712 -0.739647 14.580043 0.685600 5.970649 7.774796 2.440400 0.000000 -63.563100 13.360713 1.088415 -4.758886 -9.470272 -36.903845 -11.852377 2.035385 0.519497 -5.117452 -1.966626 -20.084718 18.793599 -10.551001 0.000000 -75.955301 -11.139921 0.170021 0.376252 -1.545661 0.937599 -3.818287 1.282547 0.855856 -5.084469 -4.725502 -0.815822 -3.203436 1.610716 0.043662 1.025423 0.000000 0.000000 0.000000 2.076412 -5.357076 -8.773701 -113.784944 -61.053933 53.850546 178.429361 -79.495235 179.735549 10.442958 -21.126410 -2.041989 0.174778 1.177815 -0.000000 0.000000 0.000000 0.000000 0.000000 0.000000 0.000000 -19.343087 7.795809 7.453051 -21.826047 33.779336 -70.026604 -0.714034 3.315645 -0.074589 -15.629408 13.387572 -2.028346 0.578196 -0.789657 -0.000000 0.000000 0.000000 0.000000 0.000000 0.000000 0.000000 
2.175494 16.592339 3.184899 12.246494 -40.429971 23.217671 -7.196201 -0.205258 8.196495 1.411210 -25.766166 -53.356174 -1.439483 -0.708328 15.056823 0.705684 5.890625 7.478107 2.379200 -0.000000 -63.582600 13.308547 1.062455 -4.811821 -9.137644 -36.719834 -11.644352 1.997534 0.593000 -5.459675 -2.182167 -21.032776 18.739683 -10.957400 0.000000 -75.562301 -10.850617 -0.008804 0.247785 -1.421577 0.754330 -3.852198 1.499870 0.667187 -5.140496 -4.994853 -0.903910 -3.091102 1.826813 0.055663 1.057093 0.000000 0.000000 0.000000 1.892030 -5.641819 -8.753467 -114.170339 -61.030682 54.035743 178.435264 -79.630031 179.734717 10.503012 -21.105316 -2.051568 0.175440 1.175060 -0.000000 0.000000 0.000000 0.000000 0.000000 0.000000 0.000000 -20.675867 7.790225 7.141777 -18.889181 34.153471 -74.303541 -1.094677 5.565903 -0.079359 -14.256556 13.894774 -1.918757 0.505507 -0.833194 -0.000000 0.000000 0.000000 0.000000 0.000000 0.000000 0.000000 
2.189839 16.573149 3.217403 12.050218 -39.835873 23.717442 -7.171740 -0.178789 8.354880 1.986905 -26.354129 -54.184956 -1.335809 -0.679740 15.494285 0.724656 5.828283 7.247175 2.331301 -0.000000 -63.635200 13.260191 1.027771 -4.851574 -8.794773 -36.517248 -11.442443 1.960281 0.671092 -5.890370 -2.441591 -21.903816 18.825711 -11.317500 -0.000000 -75.212001 -10.595082 -0.167635 0.127329 -1.344052 0.588575 -3.897111 1.562987 0.497667 -5.236728 -4.994922 -0.898861 -2.945252 1.937375 0.059879 1.097629 0.000000 0.000000 0.000000 1.880759 -5.936255 -8.719311 -114.554939 -61.016900 54.266223 178.443033 -79.777019 179.734001 10.534228 -21.093439 -2.056532 0.175962 1.175207 -0.000000 0.000000 0.000000 0.000000 0.000000 0.000000 0.000000 -21.285956 7.789143 6.851646 -16.453547 34.293633 -76.388390 -1.320987 7.996084 -0.087203 -13.742542 13.475530 -1.794957 0.468705 -0.843143 -0.000000 0.000000 0.000000 0.000000 0.000000 0.000000 0.000000 
2.204475 16.557632 3.247360 11.850584 -39.324001 24.192876 -7.154079 -0.154417 8.489840 2.526565 -26.851023 -54.945730 -1.238113 -0.654896 15.883015 0.741407 5.778347 7.072746 2.293900 -0.000000 -63.711601 13.218030 0.987921 -4.877675 -8.454308 -36.288659 -11.255999 1.921881 0.748560 -6.368816 -2.730832 -22.702053 19.031369 -11.645300 0.000000 -74.959400 -10.384890 -0.303536 0.027305 -1.301570 0.444693 -3.944945 1.528657 0.351024 -5.355782 -4.816192 -0.885157 -2.781865 1.983540 0.059443 1.142544 0.000000 0.000000 0.000000 2.005421 -6.212079 -8.673907 -114.956795 -61.021328 54.556349 178.449659 -79.922744 179.733377 10.533897 -21.091535 -2.056191 0.177042 1.177075 -0.000000 0.000000 0.000000 0.000000 0.000000 0.000000 0.000000 -21.441935 7.744078 6.561231 -14.250904 34.306677 -77.323847 -1.481430 10.670017 -0.098633 -13.908699 12.601790 -1.702251 0.455952 -0.837303 -0.000000 0.000000 0.000000 0.000000 0.000000 0.000000 0.000000 
2.218829 16.545704 3.274661 11.650457 -38.899914 24.631408 -7.141123 -0.131013 8.602311 3.013916 -27.254459 -55.612180 -1.149951 -0.635170 16.206554 0.756210 5.742927 6.945388 2.266700 -0.000000 -63.796400 13.184990 0.944126 -4.900082 -8.130560 -36.090996 -11.070675 1.893134 0.825303 -6.910825 -3.044614 -23.343550 19.356813 -11.888100 0.000000 -74.719100 -10.224247 -0.418891 -0.046745 -1.288335 0.320840 -3.991663 1.425870 0.225044 -5.487040 -4.496734 -0.891037 -2.604620 1.983418 0.055668 1.190884 0.000000 0.000000 0.000000 2.238883 -6.447502 -8.614384 -115.346052 -61.050510 54.888863 178.454202 -80.058187 179.732882 10.505671 -21.091522 -2.050549 0.178705 1.180043 -0.000000 0.000000 0.000000 0.000000 0.000000 0.000000 0.000000 -21.262264 7.639386 6.260407 -12.174565 34.254444 -77.498671 -1.601651 13.634934 -0.113599 -14.596579 11.515547 -1.637740 0.458867 -0.824083 -0.000000 0.000000 0.000000 0.000000 0.000000 0.000000 0.000000 
